# xmcd
#
# Track frame offsets:
#	150
#	15785
#	35021
#	53140
#	67433
#	81701
#	100867
#	121131
#	140921
#	162227
#	179502
#	190497
#	205375
#	223682
#	242430
#	259104
#	276934
#	290617
#	310116
#	327517
#
# Disc length: 4614 seconds
#
# Revision: 4
# Processed by: cddbd v1.5.2PL0 Copyright (c) Steve Scherf et al.
# Submitted via: EasyCDDAExtractor 6.5.0.1
#
DISCID=3e120414
DTITLE=Various Artist - New American Country
DYEAR=2002
DGENRE=Country
TTITLE0=Toby Keith - How Do You Like Me Now ?
TTITLE1=Jessica Andrews - Who I Am
TTITLE2=Mark Wills - Wish You Were Here
TTITLE3=Terri Clark - A Little Gasoline
TTITLE4=Darryl Worley - A Good Day To Run
TTITLE5=Vince Gill - Feels Like Love
TTITLE6=Reba McEntire - I'll Be
TTITLE7=Trisha Yearwood - I'll Still Love You More
TTITLE8=Mark Wills - She's In Love
TTITLE9=Mark Chesnutt - This Heartache Never Sleeps
TTITLE10=Neal Coty - Right Down Trough The Middle of Us
TTITLE11=Chely Wright - Single White Female
TTITLE12=Vince Gill - Let's Make Sure We Kiss Goodbye
TTITLE13=Sammy Kershaw and Lorrie Morgan - Maybe Not Tonight
TTITLE14=Mark Wills - Almost Doesn't Count
TTITLE15=Jamie O'Neal - There Is No Arizona
TTITLE16=Meredtih Edwards - A Rose Is A Rose
TTITLE17=Gary Allen - Smoke Rings In The Dark
TTITLE18=Chely Wright - It Was
TTITLE19=Various Artist - Back At One
EXTD=
EXTT0=
EXTT1=
EXTT2=
EXTT3=
EXTT4=
EXTT5=
EXTT6=
EXTT7=
EXTT8=
EXTT9=
EXTT10=
EXTT11=
EXTT12=
EXTT13=
EXTT14=
EXTT15=
EXTT16=
EXTT17=
EXTT18=
EXTT19=
PLAYORDER=
